<mxfile host="app.diagrams.net" modified="2022-04-15T02:16:36.342Z" agent="5.0 (Macintosh; Intel Mac OS X 10_15_7) AppleWebKit/537.36 (KHTML, like Gecko) Chrome/100.0.4896.75 Safari/537.36 Edg/100.0.1185.39" etag="nRxkhZuk_SLPQEgCB0vp" version="17.4.3" type="github">
  <diagram id="OB4-VH11w4wfy4oRzg_G" name="Page-1">
    <mxGraphModel dx="970" dy="720" grid="1" gridSize="10" guides="1" tooltips="1" connect="1" arrows="1" fold="1" page="1" pageScale="1" pageWidth="827" pageHeight="1169" math="0" shadow="0">
      <root>
        <mxCell id="0" />
        <mxCell id="1" parent="0" />
        <mxCell id="jkF1D7QpXTpECBEnuYJ5-6" value="" style="edgeStyle=orthogonalEdgeStyle;rounded=0;orthogonalLoop=1;jettySize=auto;html=1;" edge="1" parent="1" source="jkF1D7QpXTpECBEnuYJ5-1" target="jkF1D7QpXTpECBEnuYJ5-5">
          <mxGeometry relative="1" as="geometry" />
        </mxCell>
        <mxCell id="jkF1D7QpXTpECBEnuYJ5-1" value="绿米D1单火开关&lt;br&gt;可HA" style="rounded=1;whiteSpace=wrap;html=1;" vertex="1" parent="1">
          <mxGeometry x="320" y="560" width="120" height="60" as="geometry" />
        </mxCell>
        <mxCell id="jkF1D7QpXTpECBEnuYJ5-5" value="主照明灯" style="whiteSpace=wrap;html=1;rounded=1;" vertex="1" parent="1">
          <mxGeometry x="520" y="560" width="120" height="60" as="geometry" />
        </mxCell>
        <mxCell id="jkF1D7QpXTpECBEnuYJ5-14" style="edgeStyle=orthogonalEdgeStyle;rounded=0;orthogonalLoop=1;jettySize=auto;html=1;entryX=0;entryY=0.5;entryDx=0;entryDy=0;" edge="1" parent="1" source="jkF1D7QpXTpECBEnuYJ5-8" target="jkF1D7QpXTpECBEnuYJ5-11">
          <mxGeometry relative="1" as="geometry" />
        </mxCell>
        <mxCell id="jkF1D7QpXTpECBEnuYJ5-17" style="edgeStyle=orthogonalEdgeStyle;rounded=0;orthogonalLoop=1;jettySize=auto;html=1;entryX=0;entryY=0.5;entryDx=0;entryDy=0;startArrow=none;" edge="1" parent="1" source="jkF1D7QpXTpECBEnuYJ5-31" target="jkF1D7QpXTpECBEnuYJ5-1">
          <mxGeometry relative="1" as="geometry" />
        </mxCell>
        <mxCell id="jkF1D7QpXTpECBEnuYJ5-19" value="" style="edgeStyle=orthogonalEdgeStyle;rounded=0;orthogonalLoop=1;jettySize=auto;html=1;startArrow=none;" edge="1" parent="1" source="jkF1D7QpXTpECBEnuYJ5-28" target="jkF1D7QpXTpECBEnuYJ5-18">
          <mxGeometry relative="1" as="geometry">
            <Array as="points">
              <mxPoint x="250" y="350" />
            </Array>
          </mxGeometry>
        </mxCell>
        <mxCell id="jkF1D7QpXTpECBEnuYJ5-21" value="" style="edgeStyle=orthogonalEdgeStyle;rounded=0;orthogonalLoop=1;jettySize=auto;html=1;startArrow=none;" edge="1" parent="1" source="jkF1D7QpXTpECBEnuYJ5-26" target="jkF1D7QpXTpECBEnuYJ5-20">
          <mxGeometry relative="1" as="geometry">
            <mxPoint x="260" y="230" as="sourcePoint" />
            <Array as="points">
              <mxPoint x="250" y="230" />
            </Array>
          </mxGeometry>
        </mxCell>
        <mxCell id="jkF1D7QpXTpECBEnuYJ5-8" value="HA-&amp;gt;小开关" style="rounded=1;whiteSpace=wrap;html=1;" vertex="1" parent="1">
          <mxGeometry x="60" y="380" width="120" height="60" as="geometry" />
        </mxCell>
        <mxCell id="jkF1D7QpXTpECBEnuYJ5-34" value="" style="edgeStyle=orthogonalEdgeStyle;rounded=0;orthogonalLoop=1;jettySize=auto;html=1;" edge="1" parent="1" source="jkF1D7QpXTpECBEnuYJ5-11" target="jkF1D7QpXTpECBEnuYJ5-33">
          <mxGeometry relative="1" as="geometry" />
        </mxCell>
        <mxCell id="jkF1D7QpXTpECBEnuYJ5-11" value="绿米空调伴侣&lt;br&gt;可能需要更换" style="rounded=1;whiteSpace=wrap;html=1;" vertex="1" parent="1">
          <mxGeometry x="320" y="440" width="120" height="60" as="geometry" />
        </mxCell>
        <mxCell id="jkF1D7QpXTpECBEnuYJ5-36" value="" style="edgeStyle=orthogonalEdgeStyle;rounded=0;orthogonalLoop=1;jettySize=auto;html=1;" edge="1" parent="1" source="jkF1D7QpXTpECBEnuYJ5-18" target="jkF1D7QpXTpECBEnuYJ5-35">
          <mxGeometry relative="1" as="geometry" />
        </mxCell>
        <mxCell id="jkF1D7QpXTpECBEnuYJ5-18" value="gosund插座" style="whiteSpace=wrap;html=1;rounded=1;" vertex="1" parent="1">
          <mxGeometry x="320" y="320" width="120" height="60" as="geometry" />
        </mxCell>
        <mxCell id="jkF1D7QpXTpECBEnuYJ5-38" value="" style="edgeStyle=orthogonalEdgeStyle;rounded=0;orthogonalLoop=1;jettySize=auto;html=1;" edge="1" parent="1" source="jkF1D7QpXTpECBEnuYJ5-20" target="jkF1D7QpXTpECBEnuYJ5-37">
          <mxGeometry relative="1" as="geometry" />
        </mxCell>
        <mxCell id="jkF1D7QpXTpECBEnuYJ5-20" value="wifi插座开关x2&lt;br&gt;博联替代" style="whiteSpace=wrap;html=1;rounded=1;" vertex="1" parent="1">
          <mxGeometry x="320" y="200" width="120" height="60" as="geometry" />
        </mxCell>
        <mxCell id="jkF1D7QpXTpECBEnuYJ5-23" value="" style="edgeStyle=orthogonalEdgeStyle;rounded=0;orthogonalLoop=1;jettySize=auto;html=1;endArrow=none;" edge="1" parent="1" source="jkF1D7QpXTpECBEnuYJ5-8">
          <mxGeometry relative="1" as="geometry">
            <mxPoint x="180" y="470" as="sourcePoint" />
            <mxPoint x="260" y="230" as="targetPoint" />
            <Array as="points">
              <mxPoint x="250" y="410" />
              <mxPoint x="250" y="230" />
            </Array>
          </mxGeometry>
        </mxCell>
        <mxCell id="jkF1D7QpXTpECBEnuYJ5-26" value="长按" style="text;html=1;align=center;verticalAlign=middle;resizable=0;points=[];autosize=1;strokeColor=default;fillColor=default;" vertex="1" parent="1">
          <mxGeometry x="260" y="220" width="40" height="20" as="geometry" />
        </mxCell>
        <mxCell id="jkF1D7QpXTpECBEnuYJ5-27" value="" style="edgeStyle=orthogonalEdgeStyle;rounded=0;orthogonalLoop=1;jettySize=auto;html=1;startArrow=none;endArrow=none;" edge="1" parent="1" target="jkF1D7QpXTpECBEnuYJ5-26">
          <mxGeometry relative="1" as="geometry">
            <mxPoint x="260" y="230" as="sourcePoint" />
            <mxPoint x="320" y="230" as="targetPoint" />
            <Array as="points">
              <mxPoint x="270" y="220" />
              <mxPoint x="270" y="220" />
            </Array>
          </mxGeometry>
        </mxCell>
        <mxCell id="jkF1D7QpXTpECBEnuYJ5-28" value="摇动" style="text;html=1;align=center;verticalAlign=middle;resizable=0;points=[];autosize=1;strokeColor=default;fillColor=default;" vertex="1" parent="1">
          <mxGeometry x="260" y="340" width="40" height="20" as="geometry" />
        </mxCell>
        <mxCell id="jkF1D7QpXTpECBEnuYJ5-29" value="" style="edgeStyle=orthogonalEdgeStyle;rounded=0;orthogonalLoop=1;jettySize=auto;html=1;endArrow=none;" edge="1" parent="1" source="jkF1D7QpXTpECBEnuYJ5-8" target="jkF1D7QpXTpECBEnuYJ5-28">
          <mxGeometry relative="1" as="geometry">
            <mxPoint x="180" y="470" as="sourcePoint" />
            <mxPoint x="320" y="350" as="targetPoint" />
            <Array as="points">
              <mxPoint x="250" y="410" />
              <mxPoint x="250" y="350" />
            </Array>
          </mxGeometry>
        </mxCell>
        <mxCell id="jkF1D7QpXTpECBEnuYJ5-30" value="双击" style="text;html=1;align=center;verticalAlign=middle;resizable=0;points=[];autosize=1;strokeColor=default;fillColor=default;" vertex="1" parent="1">
          <mxGeometry x="260" y="460" width="40" height="20" as="geometry" />
        </mxCell>
        <mxCell id="jkF1D7QpXTpECBEnuYJ5-31" value="单击" style="text;html=1;align=center;verticalAlign=middle;resizable=0;points=[];autosize=1;strokeColor=default;fillColor=default;" vertex="1" parent="1">
          <mxGeometry x="260" y="580" width="40" height="20" as="geometry" />
        </mxCell>
        <mxCell id="jkF1D7QpXTpECBEnuYJ5-32" value="" style="edgeStyle=orthogonalEdgeStyle;rounded=0;orthogonalLoop=1;jettySize=auto;html=1;entryX=0;entryY=0.5;entryDx=0;entryDy=0;endArrow=none;" edge="1" parent="1" source="jkF1D7QpXTpECBEnuYJ5-8" target="jkF1D7QpXTpECBEnuYJ5-31">
          <mxGeometry relative="1" as="geometry">
            <mxPoint x="180" y="470" as="sourcePoint" />
            <mxPoint x="320" y="590" as="targetPoint" />
            <Array as="points">
              <mxPoint x="250" y="410" />
              <mxPoint x="250" y="590" />
            </Array>
          </mxGeometry>
        </mxCell>
        <mxCell id="jkF1D7QpXTpECBEnuYJ5-33" value="空调" style="whiteSpace=wrap;html=1;rounded=1;" vertex="1" parent="1">
          <mxGeometry x="520" y="440" width="120" height="60" as="geometry" />
        </mxCell>
        <mxCell id="jkF1D7QpXTpECBEnuYJ5-35" value="热水器" style="whiteSpace=wrap;html=1;rounded=1;" vertex="1" parent="1">
          <mxGeometry x="520" y="320" width="120" height="60" as="geometry" />
        </mxCell>
        <mxCell id="jkF1D7QpXTpECBEnuYJ5-37" value="断电/不断电&lt;br&gt;（电力改造）" style="whiteSpace=wrap;html=1;rounded=1;" vertex="1" parent="1">
          <mxGeometry x="520" y="200" width="120" height="60" as="geometry" />
        </mxCell>
      </root>
    </mxGraphModel>
  </diagram>
</mxfile>
